<svg width="22" height="23" viewBox="0 0 22 23" fill="none" xmlns="http://www.w3.org/2000/svg">
<g clip-path="url(#clip0_1_2022)">
<path d="M12.9722 0V5.4812C12.3388 5.37032 11.6844 5.32426 10.9966 5.32426C10.2753 5.32426 9.58748 5.37714 8.92603 5.49485V0H12.9722Z" fill="#00F0C9"/>
<path d="M20 13.7601C20 15.3296 19.6025 16.7626 18.8126 18.0506C18.0298 19.3318 16.9514 20.3519 15.595 21.1111C14.2334 21.8634 12.7012 22.2353 10.9948 22.2353C9.28836 22.2353 7.79129 21.8617 6.42968 21.1111C5.07335 20.3519 3.99497 19.3318 3.19278 18.0506C2.39763 16.7626 1.99829 15.3296 1.99829 13.7601C1.99829 12.1907 2.39587 10.7321 3.19278 9.4441C3.99497 8.16294 5.07511 7.14278 6.42968 6.4024C7.21252 5.97762 8.0411 5.67055 8.92421 5.49313V8.91355C7.13688 9.66587 5.88961 11.3991 5.88961 13.407C5.88961 16.1143 8.15544 18.3116 10.9473 18.3116C13.7391 18.3116 16.0049 16.1143 16.0049 13.407C16.0049 11.3991 14.7577 9.66587 12.9703 8.91355V5.47437C13.8869 5.65178 14.7506 5.95885 15.5599 6.4024C16.9215 7.14107 18.0016 8.16123 18.7968 9.4441C19.5919 10.7321 19.9965 12.1719 19.9965 13.7601H20Z" fill="#00F0C9"/>
</g>
<defs>
<clipPath id="clip0_1_2022">
<rect width="18" height="22.2353" fill="white" transform="translate(2)"/>
</clipPath>
</defs>
</svg>
