<svg width="21" height="14" viewBox="0 0 21 14" fill="none" xmlns="http://www.w3.org/2000/svg">
<path d="M5.67 13.58C2.67 13.58 0.93 11.21 0.93 8.62999C0.93 6.01999 2.76 2.23999 7.02 0.139986L8.46 2.41999C6.75 3.37999 5.43 4.57999 4.83 6.19999C5.01 6.01999 5.28 5.89999 5.88 5.89999C8.19 5.89999 10.02 7.57999 10.02 9.73999C10.02 11.9 8.19 13.58 5.67 13.58ZM15.69 13.58C12.69 13.58 10.95 11.21 10.95 8.62999C10.95 6.01999 12.78 2.23999 17.04 0.139986L18.48 2.41999C16.77 3.37999 15.45 4.57999 14.85 6.19999C15.03 6.01999 15.3 5.89999 15.9 5.89999C18.21 5.89999 20.04 7.57999 20.04 9.73999C20.04 11.9 18.21 13.58 15.69 13.58Z" fill="#19C819"/>
</svg>
